<?xml version="1.0" encoding="UTF-8" standalone="no"?>
<!DOCTYPE svg PUBLIC "-//W3C//DTD SVG 1.1//EN"
 "http://www.w3.org/Graphics/SVG/1.1/DTD/svg11.dtd">
<!-- Generated by graphviz version 16.1.0 (0)
 -->
<!-- Title: magic_graph Pages: 1 -->
<svg width="1591pt" height="1097pt"
 viewBox="0.00 0.00 1591.00 1097.00" xmlns="http://www.w3.org/2000/svg" xmlns:xlink="http://www.w3.org/1999/xlink">
<g id="graph0" class="graph" transform="scale(1 1) rotate(0) translate(4 1092.5)">
<title>magic_graph</title>
<polygon fill="white" stroke="none" points="-4,4 -4,-1092.5 1587.06,-1092.5 1587.06,4 -4,4"/>
<!-- magic_4110 -->
<g id="node1" class="node">
<title>magic_4110</title>
<ellipse fill="none" stroke="black" cx="139.65" cy="-613.25" rx="139.65" ry="143.54"/>
<text xml:space="preserve" text-anchor="middle" x="139.65" y="-697.45" font-family="monospace" font-size="14.00">Magic 4110</text>
<text xml:space="preserve" text-anchor="middle" x="139.65" y="-677.95" font-family="monospace" font-size="14.00">[Sorcery] Rock Blaster</text>
<text xml:space="preserve" text-anchor="middle" x="139.65" y="-658.45" font-family="monospace" font-size="14.00">FP Default: 12</text>
<text xml:space="preserve" text-anchor="middle" x="139.65" y="-638.95" font-family="monospace" font-size="14.00">Stamina Default: 18</text>
<text xml:space="preserve" text-anchor="middle" x="139.65" y="-619.45" font-family="monospace" font-size="14.00">FP Charged: 5</text>
<text xml:space="preserve" text-anchor="middle" x="139.65" y="-599.95" font-family="monospace" font-size="14.00">Stamina Charged: 0</text>
<text xml:space="preserve" text-anchor="middle" x="139.65" y="-580.45" font-family="monospace" font-size="14.00">ARC: 0</text>
<text xml:space="preserve" text-anchor="middle" x="139.65" y="-560.95" font-family="monospace" font-size="14.00">INT: 22</text>
<text xml:space="preserve" text-anchor="middle" x="139.65" y="-541.45" font-family="monospace" font-size="14.00">FTH: 0</text>
<text xml:space="preserve" text-anchor="middle" x="139.65" y="-521.95" font-family="monospace" font-size="14.00">FP Loop Menu: 5</text>
</g>
<!-- bullet_10411010_0 -->
<g id="node2" class="node">
<title>bullet_10411010_0</title>
<polygon fill="none" stroke="black" points="659.06,-1069 412.06,-1069 412.06,-963.5 659.06,-963.5 659.06,-1069"/>
<text xml:space="preserve" text-anchor="middle" x="535.56" y="-1051.7" font-family="monospace" font-size="14.00">Bullet 10411010 </text>
<text xml:space="preserve" text-anchor="middle" x="535.56" y="-1032.2" font-family="monospace" font-size="14.00">Rock Blaster </text>
<text xml:space="preserve" text-anchor="middle" x="535.56" y="-1012.7" font-family="monospace" font-size="14.00">atkId_Bullet: 1 </text>
<text xml:space="preserve" text-anchor="middle" x="535.56" y="-993.2" font-family="monospace" font-size="14.00">Consumption Type: Charged &#160;&#160;</text>
<text xml:space="preserve" text-anchor="middle" x="535.56" y="-973.7" font-family="monospace" font-size="14.00">Life time: 0.05 </text>
</g>
<!-- magic_4110&#45;&gt;bullet_10411010_0 -->
<g id="edge1" class="edge">
<title>magic_4110&#45;&gt;bullet_10411010_0</title>
<path fill="none" stroke="black" d="M213.91,-734.94C262.47,-806.95 331.89,-895.31 412.06,-954.25 413.22,-955.1 414.39,-955.95 415.58,-956.79"/>
<polygon fill="black" stroke="black" points="413.41,-959.55 423.65,-962.28 417.35,-953.76 413.41,-959.55"/>
<text xml:space="preserve" text-anchor="middle" x="345.68" y="-943.92" font-family="Times,serif" font-size="14.00">magic ref_id1</text>
</g>
<!-- bullet_10411000_2 -->
<g id="node6" class="node">
<title>bullet_10411000_2</title>
<polygon fill="none" stroke="black" points="646.68,-945 424.43,-945 424.43,-839.5 646.68,-839.5 646.68,-945"/>
<text xml:space="preserve" text-anchor="middle" x="535.56" y="-927.7" font-family="monospace" font-size="14.00">Bullet 10411000 </text>
<text xml:space="preserve" text-anchor="middle" x="535.56" y="-908.2" font-family="monospace" font-size="14.00">Rock Blaster </text>
<text xml:space="preserve" text-anchor="middle" x="535.56" y="-888.7" font-family="monospace" font-size="14.00">atkId_Bullet: 41101 </text>
<text xml:space="preserve" text-anchor="middle" x="535.56" y="-869.2" font-family="monospace" font-size="14.00">Consumption Type: None &#160;&#160;</text>
<text xml:space="preserve" text-anchor="middle" x="535.56" y="-849.7" font-family="monospace" font-size="14.00">Life time: 0.2 </text>
</g>
<!-- magic_4110&#45;&gt;bullet_10411000_2 -->
<g id="edge5" class="edge">
<title>magic_4110&#45;&gt;bullet_10411000_2</title>
<path fill="none" stroke="black" d="M246.43,-706.22C295.12,-746.78 354.72,-793.38 412.06,-830.25 413.64,-831.27 415.25,-832.28 416.87,-833.3"/>
<polygon fill="black" stroke="black" points="414.65,-836.04 425.01,-838.24 418.28,-830.06 414.65,-836.04"/>
<text xml:space="preserve" text-anchor="middle" x="345.68" y="-818.66" font-family="Times,serif" font-size="14.00">magic ref_id2</text>
</g>
<!-- bullet_10411012_3 -->
<g id="node9" class="node">
<title>bullet_10411012_3</title>
<polygon fill="none" stroke="black" points="659.06,-821 412.06,-821 412.06,-715.5 659.06,-715.5 659.06,-821"/>
<text xml:space="preserve" text-anchor="middle" x="535.56" y="-803.7" font-family="monospace" font-size="14.00">Bullet 10411012 </text>
<text xml:space="preserve" text-anchor="middle" x="535.56" y="-784.2" font-family="monospace" font-size="14.00">Rock Blaster </text>
<text xml:space="preserve" text-anchor="middle" x="535.56" y="-764.7" font-family="monospace" font-size="14.00">atkId_Bullet: 1 </text>
<text xml:space="preserve" text-anchor="middle" x="535.56" y="-745.2" font-family="monospace" font-size="14.00">Consumption Type: Charged &#160;&#160;</text>
<text xml:space="preserve" text-anchor="middle" x="535.56" y="-725.7" font-family="monospace" font-size="14.00">Life time: 0.05 </text>
</g>
<!-- magic_4110&#45;&gt;bullet_10411012_3 -->
<g id="edge8" class="edge">
<title>magic_4110&#45;&gt;bullet_10411012_3</title>
<path fill="none" stroke="black" d="M270.45,-664.32C312.4,-680.83 358.97,-699.16 401.17,-715.76"/>
<polygon fill="black" stroke="black" points="399.81,-718.99 410.4,-719.39 402.37,-712.47 399.81,-718.99"/>
<text xml:space="preserve" text-anchor="middle" x="345.68" y="-713.14" font-family="Times,serif" font-size="14.00">magic ref_id3</text>
</g>
<!-- bullet_10999999_5 -->
<g id="node13" class="node">
<title>bullet_10999999_5</title>
<polygon fill="none" stroke="black" points="659.06,-697 412.06,-697 412.06,-591.5 659.06,-591.5 659.06,-697"/>
<text xml:space="preserve" text-anchor="middle" x="535.56" y="-679.7" font-family="monospace" font-size="14.00">Bullet 10999999 </text>
<text xml:space="preserve" text-anchor="middle" x="535.56" y="-660.2" font-family="monospace" font-size="14.00">Impact </text>
<text xml:space="preserve" text-anchor="middle" x="535.56" y="-640.7" font-family="monospace" font-size="14.00">atkId_Bullet: 0 </text>
<text xml:space="preserve" text-anchor="middle" x="535.56" y="-621.2" font-family="monospace" font-size="14.00">Consumption Type: Default &#160;&#160;</text>
<text xml:space="preserve" text-anchor="middle" x="535.56" y="-601.7" font-family="monospace" font-size="14.00">Life time: 0.1 </text>
</g>
<!-- magic_4110&#45;&gt;bullet_10999999_5 -->
<g id="edge12" class="edge">
<title>magic_4110&#45;&gt;bullet_10999999_5</title>
<path fill="none" stroke="black" d="M279.25,-624.16C318.58,-627.25 361.32,-630.62 400.38,-633.69"/>
<polygon fill="black" stroke="black" points="400.08,-637.18 410.33,-634.47 400.63,-630.2 400.08,-637.18"/>
<text xml:space="preserve" text-anchor="middle" x="345.68" y="-636.39" font-family="Times,serif" font-size="14.00">magic ref_id4</text>
</g>
<!-- bullet_10411010_6 -->
<g id="node14" class="node">
<title>bullet_10411010_6</title>
<polygon fill="none" stroke="black" points="646.68,-573 424.43,-573 424.43,-467.5 646.68,-467.5 646.68,-573"/>
<text xml:space="preserve" text-anchor="middle" x="535.56" y="-555.7" font-family="monospace" font-size="14.00">Bullet 10411010 </text>
<text xml:space="preserve" text-anchor="middle" x="535.56" y="-536.2" font-family="monospace" font-size="14.00">Rock Blaster </text>
<text xml:space="preserve" text-anchor="middle" x="535.56" y="-516.7" font-family="monospace" font-size="14.00">atkId_Bullet: 1 </text>
<text xml:space="preserve" text-anchor="middle" x="535.56" y="-497.2" font-family="monospace" font-size="14.00">Consumption Type: None &#160;&#160;</text>
<text xml:space="preserve" text-anchor="middle" x="535.56" y="-477.7" font-family="monospace" font-size="14.00">Life time: 0.05 </text>
</g>
<!-- magic_4110&#45;&gt;bullet_10411010_6 -->
<g id="edge13" class="edge">
<title>magic_4110&#45;&gt;bullet_10411010_6</title>
<path fill="none" stroke="black" d="M276.21,-581.24C320.64,-570.76 369.69,-559.17 413.01,-548.95"/>
<polygon fill="black" stroke="black" points="413.79,-552.36 422.72,-546.66 412.18,-545.55 413.79,-552.36"/>
<text xml:space="preserve" text-anchor="middle" x="345.68" y="-579.03" font-family="Times,serif" font-size="14.00">magic ref_id5</text>
</g>
<!-- bullet_10411012_8 -->
<g id="node18" class="node">
<title>bullet_10411012_8</title>
<polygon fill="none" stroke="black" points="646.68,-449 424.43,-449 424.43,-343.5 646.68,-343.5 646.68,-449"/>
<text xml:space="preserve" text-anchor="middle" x="535.56" y="-431.7" font-family="monospace" font-size="14.00">Bullet 10411012 </text>
<text xml:space="preserve" text-anchor="middle" x="535.56" y="-412.2" font-family="monospace" font-size="14.00">Rock Blaster </text>
<text xml:space="preserve" text-anchor="middle" x="535.56" y="-392.7" font-family="monospace" font-size="14.00">atkId_Bullet: 1 </text>
<text xml:space="preserve" text-anchor="middle" x="535.56" y="-373.2" font-family="monospace" font-size="14.00">Consumption Type: None &#160;&#160;</text>
<text xml:space="preserve" text-anchor="middle" x="535.56" y="-353.7" font-family="monospace" font-size="14.00">Life time: 0.05 </text>
</g>
<!-- magic_4110&#45;&gt;bullet_10411012_8 -->
<g id="edge17" class="edge">
<title>magic_4110&#45;&gt;bullet_10411012_8</title>
<path fill="none" stroke="black" d="M261.52,-542.49C308.25,-515.59 362.36,-484.99 412.06,-458.25 414.27,-457.06 416.52,-455.86 418.78,-454.65"/>
<polygon fill="black" stroke="black" points="420.26,-457.83 427.47,-450.06 416.99,-451.64 420.26,-457.83"/>
<text xml:space="preserve" text-anchor="middle" x="345.68" y="-524.71" font-family="Times,serif" font-size="14.00">magic ref_id6</text>
</g>
<!-- bullet_10411014_10 -->
<g id="node22" class="node">
<title>bullet_10411014_10</title>
<polygon fill="none" stroke="black" points="659.06,-306 412.06,-306 412.06,-200.5 659.06,-200.5 659.06,-306"/>
<text xml:space="preserve" text-anchor="middle" x="535.56" y="-288.7" font-family="monospace" font-size="14.00">Bullet 10411014 </text>
<text xml:space="preserve" text-anchor="middle" x="535.56" y="-269.2" font-family="monospace" font-size="14.00">Rock Blaster </text>
<text xml:space="preserve" text-anchor="middle" x="535.56" y="-249.7" font-family="monospace" font-size="14.00">atkId_Bullet: 1 </text>
<text xml:space="preserve" text-anchor="middle" x="535.56" y="-230.2" font-family="monospace" font-size="14.00">Consumption Type: Charged &#160;&#160;</text>
<text xml:space="preserve" text-anchor="middle" x="535.56" y="-210.7" font-family="monospace" font-size="14.00">Life time: 0.05 </text>
</g>
<!-- magic_4110&#45;&gt;bullet_10411014_10 -->
<g id="edge21" class="edge">
<title>magic_4110&#45;&gt;bullet_10411014_10</title>
<path fill="none" stroke="black" d="M233.71,-506.48C283.84,-451.94 348.33,-386.29 412.06,-334.25 420.89,-327.04 430.37,-319.88 440.01,-312.97"/>
<polygon fill="black" stroke="black" points="441.89,-315.92 448.04,-307.3 437.85,-310.2 441.89,-315.92"/>
<text xml:space="preserve" text-anchor="middle" x="345.68" y="-439.22" font-family="Times,serif" font-size="14.00">magic ref_id7</text>
</g>
<!-- bullet_10411014_12 -->
<g id="node26" class="node">
<title>bullet_10411014_12</title>
<polygon fill="none" stroke="black" points="646.68,-162 424.43,-162 424.43,-56.5 646.68,-56.5 646.68,-162"/>
<text xml:space="preserve" text-anchor="middle" x="535.56" y="-144.7" font-family="monospace" font-size="14.00">Bullet 10411014 </text>
<text xml:space="preserve" text-anchor="middle" x="535.56" y="-125.2" font-family="monospace" font-size="14.00">Rock Blaster </text>
<text xml:space="preserve" text-anchor="middle" x="535.56" y="-105.7" font-family="monospace" font-size="14.00">atkId_Bullet: 1 </text>
<text xml:space="preserve" text-anchor="middle" x="535.56" y="-86.2" font-family="monospace" font-size="14.00">Consumption Type: None &#160;&#160;</text>
<text xml:space="preserve" text-anchor="middle" x="535.56" y="-66.7" font-family="monospace" font-size="14.00">Life time: 0.05 </text>
</g>
<!-- magic_4110&#45;&gt;bullet_10411014_12 -->
<g id="edge25" class="edge">
<title>magic_4110&#45;&gt;bullet_10411014_12</title>
<path fill="none" stroke="black" d="M201.1,-483.94C248.5,-393.26 321.52,-273.93 412.06,-191.25 420.43,-183.6 429.58,-176.14 438.99,-169.03"/>
<polygon fill="black" stroke="black" points="440.88,-171.99 446.85,-163.23 436.72,-166.36 440.88,-171.99"/>
<text xml:space="preserve" text-anchor="middle" x="345.68" y="-318.99" font-family="Times,serif" font-size="14.00">magic ref_id8</text>
</g>
<!-- bullet_10411011_1 -->
<g id="node3" class="node">
<title>bullet_10411011_1</title>
<polygon fill="none" stroke="black" points="1025.31,-1059.25 819.56,-1059.25 819.56,-973.25 1025.31,-973.25 1025.31,-1059.25"/>
<text xml:space="preserve" text-anchor="middle" x="922.43" y="-1041.95" font-family="monospace" font-size="14.00">Bullet 10411011 </text>
<text xml:space="preserve" text-anchor="middle" x="922.43" y="-1022.45" font-family="monospace" font-size="14.00">Rock Blaster </text>
<text xml:space="preserve" text-anchor="middle" x="922.43" y="-1002.95" font-family="monospace" font-size="14.00">atkId_Bullet: 41100 &#160;&#160;&#160;</text>
<text xml:space="preserve" text-anchor="middle" x="922.43" y="-983.45" font-family="monospace" font-size="14.00">Life time: 0.05 </text>
</g>
<!-- bullet_10411010_0&#45;&gt;bullet_10411011_1 -->
<g id="edge2" class="edge">
<title>bullet_10411010_0&#45;&gt;bullet_10411011_1</title>
<path fill="none" stroke="black" d="M659.39,-1016.25C706.95,-1016.25 761.06,-1016.25 807.71,-1016.25"/>
<polygon fill="black" stroke="black" points="807.58,-1019.75 817.58,-1016.25 807.58,-1012.75 807.58,-1019.75"/>
<text xml:space="preserve" text-anchor="middle" x="739.31" y="-1020.2" font-family="Times,serif" font-size="14.00">on hit creates</text>
</g>
<!-- bullet_10411011_1_atk -->
<g id="node4" class="node">
<title>bullet_10411011_1_atk</title>
<polygon fill="none" stroke="black" points="1333.81,-1039.75 1185.81,-1039.75 1185.81,-1035.75 1181.81,-1035.75 1181.81,-1031.75 1185.81,-1031.75 1185.81,-1000.75 1181.81,-1000.75 1181.81,-996.75 1185.81,-996.75 1185.81,-992.75 1333.81,-992.75 1333.81,-1039.75"/>
<polyline fill="none" stroke="black" points="1185.81,-1035.75 1189.81,-1035.75 1189.81,-1031.75 1185.81,-1031.75"/>
<polyline fill="none" stroke="black" points="1185.81,-1000.75 1189.81,-1000.75 1189.81,-996.75 1185.81,-996.75"/>
<text xml:space="preserve" text-anchor="middle" x="1259.81" y="-1022.45" font-family="monospace" font-size="14.00">AtkParamPc 41100</text>
<text xml:space="preserve" text-anchor="middle" x="1259.81" y="-1002.95" font-family="monospace" font-size="14.00">Rock Blaster</text>
</g>
<!-- bullet_10411011_1&#45;&gt;bullet_10411011_1_atk -->
<g id="edge3" class="edge">
<title>bullet_10411011_1&#45;&gt;bullet_10411011_1_atk</title>
<path fill="none" stroke="black" d="M1025.42,-1016.25C1073.03,-1016.25 1129.04,-1016.25 1174.25,-1016.25"/>
<polygon fill="black" stroke="black" points="1173.99,-1019.75 1183.99,-1016.25 1173.99,-1012.75 1173.99,-1019.75"/>
<text xml:space="preserve" text-anchor="middle" x="1105.56" y="-1020.2" font-family="Times,serif" font-size="14.00">has Attack Param</text>
</g>
<!-- bullet_10411011_1_atk_damage -->
<g id="node5" class="node">
<title>bullet_10411011_1_atk_damage</title>
<polygon fill="none" stroke="black" points="1577.06,-1088.5 1468.06,-1088.5 1468.06,-944 1583.06,-944 1583.06,-1082.5 1577.06,-1088.5"/>
<polyline fill="none" stroke="black" points="1577.06,-1088.5 1577.06,-1082.5"/>
<polyline fill="none" stroke="black" points="1583.06,-1082.5 1577.06,-1082.5"/>
<text xml:space="preserve" text-anchor="middle" x="1525.56" y="-1071.2" font-family="monospace" font-size="14.00">Physical: 83</text>
<text xml:space="preserve" text-anchor="middle" x="1525.56" y="-1051.7" font-family="monospace" font-size="14.00">Magic: 0</text>
<text xml:space="preserve" text-anchor="middle" x="1525.56" y="-1032.2" font-family="monospace" font-size="14.00">Fire: 0</text>
<text xml:space="preserve" text-anchor="middle" x="1525.56" y="-1012.7" font-family="monospace" font-size="14.00">Lightning: 0</text>
<text xml:space="preserve" text-anchor="middle" x="1525.56" y="-993.2" font-family="monospace" font-size="14.00">Holy: 0</text>
<text xml:space="preserve" text-anchor="middle" x="1525.56" y="-973.7" font-family="monospace" font-size="14.00">Stamina: 5</text>
<text xml:space="preserve" text-anchor="middle" x="1525.56" y="-954.2" font-family="monospace" font-size="14.00">Poise: 0.1</text>
</g>
<!-- bullet_10411011_1_atk&#45;&gt;bullet_10411011_1_atk_damage -->
<g id="edge4" class="edge">
<title>bullet_10411011_1_atk&#45;&gt;bullet_10411011_1_atk_damage</title>
<path fill="none" stroke="black" d="M1334.28,-1016.25C1372.54,-1016.25 1419.02,-1016.25 1456.47,-1016.25"/>
<polygon fill="black" stroke="black" points="1456.27,-1019.75 1466.27,-1016.25 1456.27,-1012.75 1456.27,-1019.75"/>
<text xml:space="preserve" text-anchor="middle" x="1400.93" y="-1020.2" font-family="Times,serif" font-size="14.00">deals damage</text>
</g>
<!-- bullet_10411000_2_atk -->
<g id="node7" class="node">
<title>bullet_10411000_2_atk</title>
<polygon fill="none" stroke="black" points="996.43,-915.75 848.43,-915.75 848.43,-911.75 844.43,-911.75 844.43,-907.75 848.43,-907.75 848.43,-876.75 844.43,-876.75 844.43,-872.75 848.43,-872.75 848.43,-868.75 996.43,-868.75 996.43,-915.75"/>
<polyline fill="none" stroke="black" points="848.43,-911.75 852.43,-911.75 852.43,-907.75 848.43,-907.75"/>
<polyline fill="none" stroke="black" points="848.43,-876.75 852.43,-876.75 852.43,-872.75 848.43,-872.75"/>
<text xml:space="preserve" text-anchor="middle" x="922.43" y="-898.45" font-family="monospace" font-size="14.00">AtkParamPc 41101</text>
<text xml:space="preserve" text-anchor="middle" x="922.43" y="-878.95" font-family="monospace" font-size="14.00">Rock Blaster</text>
</g>
<!-- bullet_10411000_2&#45;&gt;bullet_10411000_2_atk -->
<g id="edge6" class="edge">
<title>bullet_10411000_2&#45;&gt;bullet_10411000_2_atk</title>
<path fill="none" stroke="black" d="M647.1,-892.25C707.47,-892.25 781.04,-892.25 836.79,-892.25"/>
<polygon fill="black" stroke="black" points="836.54,-895.75 846.54,-892.25 836.54,-888.75 836.54,-895.75"/>
<text xml:space="preserve" text-anchor="middle" x="739.31" y="-896.2" font-family="Times,serif" font-size="14.00">has Attack Param</text>
</g>
<!-- bullet_10411000_2_atk_damage -->
<g id="node8" class="node">
<title>bullet_10411000_2_atk_damage</title>
<polygon fill="none" stroke="black" points="1315.43,-964.5 1198.18,-964.5 1198.18,-820 1321.43,-820 1321.43,-958.5 1315.43,-964.5"/>
<polyline fill="none" stroke="black" points="1315.43,-964.5 1315.43,-958.5"/>
<polyline fill="none" stroke="black" points="1321.43,-958.5 1315.43,-958.5"/>
<text xml:space="preserve" text-anchor="middle" x="1259.81" y="-947.2" font-family="monospace" font-size="14.00">Physical: 235</text>
<text xml:space="preserve" text-anchor="middle" x="1259.81" y="-927.7" font-family="monospace" font-size="14.00">Magic: 0</text>
<text xml:space="preserve" text-anchor="middle" x="1259.81" y="-908.2" font-family="monospace" font-size="14.00">Fire: 0</text>
<text xml:space="preserve" text-anchor="middle" x="1259.81" y="-888.7" font-family="monospace" font-size="14.00">Lightning: 0</text>
<text xml:space="preserve" text-anchor="middle" x="1259.81" y="-869.2" font-family="monospace" font-size="14.00">Holy: 0</text>
<text xml:space="preserve" text-anchor="middle" x="1259.81" y="-849.7" font-family="monospace" font-size="14.00">Stamina: 50</text>
<text xml:space="preserve" text-anchor="middle" x="1259.81" y="-830.2" font-family="monospace" font-size="14.00">Poise: 22</text>
</g>
<!-- bullet_10411000_2_atk&#45;&gt;bullet_10411000_2_atk_damage -->
<g id="edge7" class="edge">
<title>bullet_10411000_2_atk&#45;&gt;bullet_10411000_2_atk_damage</title>
<path fill="none" stroke="black" d="M996.62,-892.25C1052.97,-892.25 1130.45,-892.25 1186.56,-892.25"/>
<polygon fill="black" stroke="black" points="1186.33,-895.75 1196.33,-892.25 1186.33,-888.75 1186.33,-895.75"/>
<text xml:space="preserve" text-anchor="middle" x="1105.56" y="-896.2" font-family="Times,serif" font-size="14.00">deals damage</text>
</g>
<!-- bullet_10411013_4 -->
<g id="node10" class="node">
<title>bullet_10411013_4</title>
<polygon fill="none" stroke="black" points="1025.31,-811.25 819.56,-811.25 819.56,-725.25 1025.31,-725.25 1025.31,-811.25"/>
<text xml:space="preserve" text-anchor="middle" x="922.43" y="-793.95" font-family="monospace" font-size="14.00">Bullet 10411013 </text>
<text xml:space="preserve" text-anchor="middle" x="922.43" y="-774.45" font-family="monospace" font-size="14.00">Rock Blaster </text>
<text xml:space="preserve" text-anchor="middle" x="922.43" y="-754.95" font-family="monospace" font-size="14.00">atkId_Bullet: 41102 &#160;&#160;&#160;</text>
<text xml:space="preserve" text-anchor="middle" x="922.43" y="-735.45" font-family="monospace" font-size="14.00">Life time: 0.05 </text>
</g>
<!-- bullet_10411012_3&#45;&gt;bullet_10411013_4 -->
<g id="edge9" class="edge">
<title>bullet_10411012_3&#45;&gt;bullet_10411013_4</title>
<path fill="none" stroke="black" d="M659.39,-768.25C706.95,-768.25 761.06,-768.25 807.71,-768.25"/>
<polygon fill="black" stroke="black" points="807.58,-771.75 817.58,-768.25 807.58,-764.75 807.58,-771.75"/>
<text xml:space="preserve" text-anchor="middle" x="739.31" y="-772.2" font-family="Times,serif" font-size="14.00">on hit creates</text>
</g>
<!-- bullet_10411013_4_atk -->
<g id="node11" class="node">
<title>bullet_10411013_4_atk</title>
<polygon fill="none" stroke="black" points="1333.81,-791.75 1185.81,-791.75 1185.81,-787.75 1181.81,-787.75 1181.81,-783.75 1185.81,-783.75 1185.81,-752.75 1181.81,-752.75 1181.81,-748.75 1185.81,-748.75 1185.81,-744.75 1333.81,-744.75 1333.81,-791.75"/>
<polyline fill="none" stroke="black" points="1185.81,-787.75 1189.81,-787.75 1189.81,-783.75 1185.81,-783.75"/>
<polyline fill="none" stroke="black" points="1185.81,-752.75 1189.81,-752.75 1189.81,-748.75 1185.81,-748.75"/>
<text xml:space="preserve" text-anchor="middle" x="1259.81" y="-774.45" font-family="monospace" font-size="14.00">AtkParamPc 41102</text>
<text xml:space="preserve" text-anchor="middle" x="1259.81" y="-754.95" font-family="monospace" font-size="14.00">Rock Blaster</text>
</g>
<!-- bullet_10411013_4&#45;&gt;bullet_10411013_4_atk -->
<g id="edge10" class="edge">
<title>bullet_10411013_4&#45;&gt;bullet_10411013_4_atk</title>
<path fill="none" stroke="black" d="M1025.42,-768.25C1073.03,-768.25 1129.04,-768.25 1174.25,-768.25"/>
<polygon fill="black" stroke="black" points="1173.99,-771.75 1183.99,-768.25 1173.99,-764.75 1173.99,-771.75"/>
<text xml:space="preserve" text-anchor="middle" x="1105.56" y="-772.2" font-family="Times,serif" font-size="14.00">has Attack Param</text>
</g>
<!-- bullet_10411013_4_atk_damage -->
<g id="node12" class="node">
<title>bullet_10411013_4_atk_damage</title>
<polygon fill="none" stroke="black" points="1577.06,-840.5 1468.06,-840.5 1468.06,-696 1583.06,-696 1583.06,-834.5 1577.06,-840.5"/>
<polyline fill="none" stroke="black" points="1577.06,-840.5 1577.06,-834.5"/>
<polyline fill="none" stroke="black" points="1583.06,-834.5 1577.06,-834.5"/>
<text xml:space="preserve" text-anchor="middle" x="1525.56" y="-823.2" font-family="monospace" font-size="14.00">Physical: 83</text>
<text xml:space="preserve" text-anchor="middle" x="1525.56" y="-803.7" font-family="monospace" font-size="14.00">Magic: 0</text>
<text xml:space="preserve" text-anchor="middle" x="1525.56" y="-784.2" font-family="monospace" font-size="14.00">Fire: 0</text>
<text xml:space="preserve" text-anchor="middle" x="1525.56" y="-764.7" font-family="monospace" font-size="14.00">Lightning: 0</text>
<text xml:space="preserve" text-anchor="middle" x="1525.56" y="-745.2" font-family="monospace" font-size="14.00">Holy: 0</text>
<text xml:space="preserve" text-anchor="middle" x="1525.56" y="-725.7" font-family="monospace" font-size="14.00">Stamina: 5</text>
<text xml:space="preserve" text-anchor="middle" x="1525.56" y="-706.2" font-family="monospace" font-size="14.00">Poise: 0.1</text>
</g>
<!-- bullet_10411013_4_atk&#45;&gt;bullet_10411013_4_atk_damage -->
<g id="edge11" class="edge">
<title>bullet_10411013_4_atk&#45;&gt;bullet_10411013_4_atk_damage</title>
<path fill="none" stroke="black" d="M1334.28,-768.25C1372.54,-768.25 1419.02,-768.25 1456.47,-768.25"/>
<polygon fill="black" stroke="black" points="1456.27,-771.75 1466.27,-768.25 1456.27,-764.75 1456.27,-771.75"/>
<text xml:space="preserve" text-anchor="middle" x="1400.93" y="-772.2" font-family="Times,serif" font-size="14.00">deals damage</text>
</g>
<!-- bullet_10411011_7 -->
<g id="node15" class="node">
<title>bullet_10411011_7</title>
<polygon fill="none" stroke="black" points="1025.31,-589.25 819.56,-589.25 819.56,-503.25 1025.31,-503.25 1025.31,-589.25"/>
<text xml:space="preserve" text-anchor="middle" x="922.43" y="-571.95" font-family="monospace" font-size="14.00">Bullet 10411011 </text>
<text xml:space="preserve" text-anchor="middle" x="922.43" y="-552.45" font-family="monospace" font-size="14.00">Rock Blaster </text>
<text xml:space="preserve" text-anchor="middle" x="922.43" y="-532.95" font-family="monospace" font-size="14.00">atkId_Bullet: 41100 &#160;&#160;&#160;</text>
<text xml:space="preserve" text-anchor="middle" x="922.43" y="-513.45" font-family="monospace" font-size="14.00">Life time: 0.05 </text>
</g>
<!-- bullet_10411010_6&#45;&gt;bullet_10411011_7 -->
<g id="edge14" class="edge">
<title>bullet_10411010_6&#45;&gt;bullet_10411011_7</title>
<path fill="none" stroke="black" d="M647.1,-527.72C697.49,-531.12 757.07,-535.15 807.82,-538.58"/>
<polygon fill="black" stroke="black" points="807.45,-542.06 817.66,-539.24 807.92,-535.07 807.45,-542.06"/>
<text xml:space="preserve" text-anchor="middle" x="739.31" y="-541.79" font-family="Times,serif" font-size="14.00">on hit creates</text>
</g>
<!-- bullet_10411011_7_atk -->
<g id="node16" class="node">
<title>bullet_10411011_7_atk</title>
<polygon fill="none" stroke="black" points="1333.81,-582.75 1185.81,-582.75 1185.81,-578.75 1181.81,-578.75 1181.81,-574.75 1185.81,-574.75 1185.81,-543.75 1181.81,-543.75 1181.81,-539.75 1185.81,-539.75 1185.81,-535.75 1333.81,-535.75 1333.81,-582.75"/>
<polyline fill="none" stroke="black" points="1185.81,-578.75 1189.81,-578.75 1189.81,-574.75 1185.81,-574.75"/>
<polyline fill="none" stroke="black" points="1185.81,-543.75 1189.81,-543.75 1189.81,-539.75 1185.81,-539.75"/>
<text xml:space="preserve" text-anchor="middle" x="1259.81" y="-565.45" font-family="monospace" font-size="14.00">AtkParamPc 41100</text>
<text xml:space="preserve" text-anchor="middle" x="1259.81" y="-545.95" font-family="monospace" font-size="14.00">Rock Blaster</text>
</g>
<!-- bullet_10411011_7&#45;&gt;bullet_10411011_7_atk -->
<g id="edge15" class="edge">
<title>bullet_10411011_7&#45;&gt;bullet_10411011_7_atk</title>
<path fill="none" stroke="black" d="M1025.42,-550.2C1073.03,-552.05 1129.04,-554.22 1174.25,-555.97"/>
<polygon fill="black" stroke="black" points="1173.86,-559.46 1183.99,-556.35 1174.13,-552.47 1173.86,-559.46"/>
<text xml:space="preserve" text-anchor="middle" x="1105.56" y="-559.36" font-family="Times,serif" font-size="14.00">has Attack Param</text>
</g>
<!-- bullet_10411011_7_atk_damage -->
<g id="node17" class="node">
<title>bullet_10411011_7_atk_damage</title>
<polygon fill="none" stroke="black" points="1577.06,-633.5 1468.06,-633.5 1468.06,-489 1583.06,-489 1583.06,-627.5 1577.06,-633.5"/>
<polyline fill="none" stroke="black" points="1577.06,-633.5 1577.06,-627.5"/>
<polyline fill="none" stroke="black" points="1583.06,-627.5 1577.06,-627.5"/>
<text xml:space="preserve" text-anchor="middle" x="1525.56" y="-616.2" font-family="monospace" font-size="14.00">Physical: 83</text>
<text xml:space="preserve" text-anchor="middle" x="1525.56" y="-596.7" font-family="monospace" font-size="14.00">Magic: 0</text>
<text xml:space="preserve" text-anchor="middle" x="1525.56" y="-577.2" font-family="monospace" font-size="14.00">Fire: 0</text>
<text xml:space="preserve" text-anchor="middle" x="1525.56" y="-557.7" font-family="monospace" font-size="14.00">Lightning: 0</text>
<text xml:space="preserve" text-anchor="middle" x="1525.56" y="-538.2" font-family="monospace" font-size="14.00">Holy: 0</text>
<text xml:space="preserve" text-anchor="middle" x="1525.56" y="-518.7" font-family="monospace" font-size="14.00">Stamina: 5</text>
<text xml:space="preserve" text-anchor="middle" x="1525.56" y="-499.2" font-family="monospace" font-size="14.00">Poise: 0.1</text>
</g>
<!-- bullet_10411011_7_atk&#45;&gt;bullet_10411011_7_atk_damage -->
<g id="edge16" class="edge">
<title>bullet_10411011_7_atk&#45;&gt;bullet_10411011_7_atk_damage</title>
<path fill="none" stroke="black" d="M1334.28,-559.81C1372.54,-560.1 1419.02,-560.45 1456.47,-560.73"/>
<polygon fill="black" stroke="black" points="1456.24,-564.23 1466.27,-560.81 1456.29,-557.23 1456.24,-564.23"/>
<text xml:space="preserve" text-anchor="middle" x="1400.93" y="-564.61" font-family="Times,serif" font-size="14.00">deals damage</text>
</g>
<!-- bullet_10411013_9 -->
<g id="node19" class="node">
<title>bullet_10411013_9</title>
<polygon fill="none" stroke="black" points="1025.31,-440.25 819.56,-440.25 819.56,-354.25 1025.31,-354.25 1025.31,-440.25"/>
<text xml:space="preserve" text-anchor="middle" x="922.43" y="-422.95" font-family="monospace" font-size="14.00">Bullet 10411013 </text>
<text xml:space="preserve" text-anchor="middle" x="922.43" y="-403.45" font-family="monospace" font-size="14.00">Rock Blaster </text>
<text xml:space="preserve" text-anchor="middle" x="922.43" y="-383.95" font-family="monospace" font-size="14.00">atkId_Bullet: 41102 &#160;&#160;&#160;</text>
<text xml:space="preserve" text-anchor="middle" x="922.43" y="-364.45" font-family="monospace" font-size="14.00">Life time: 0.05 </text>
</g>
<!-- bullet_10411012_8&#45;&gt;bullet_10411013_9 -->
<g id="edge18" class="edge">
<title>bullet_10411012_8&#45;&gt;bullet_10411013_9</title>
<path fill="none" stroke="black" d="M647.1,-396.54C697.49,-396.67 757.07,-396.82 807.82,-396.95"/>
<polygon fill="black" stroke="black" points="807.65,-400.45 817.66,-396.98 807.67,-393.45 807.65,-400.45"/>
<text xml:space="preserve" text-anchor="middle" x="739.31" y="-400.88" font-family="Times,serif" font-size="14.00">on hit creates</text>
</g>
<!-- bullet_10411013_9_atk -->
<g id="node20" class="node">
<title>bullet_10411013_9_atk</title>
<polygon fill="none" stroke="black" points="1333.81,-421.75 1185.81,-421.75 1185.81,-417.75 1181.81,-417.75 1181.81,-413.75 1185.81,-413.75 1185.81,-382.75 1181.81,-382.75 1181.81,-378.75 1185.81,-378.75 1185.81,-374.75 1333.81,-374.75 1333.81,-421.75"/>
<polyline fill="none" stroke="black" points="1185.81,-417.75 1189.81,-417.75 1189.81,-413.75 1185.81,-413.75"/>
<polyline fill="none" stroke="black" points="1185.81,-382.75 1189.81,-382.75 1189.81,-378.75 1185.81,-378.75"/>
<text xml:space="preserve" text-anchor="middle" x="1259.81" y="-404.45" font-family="monospace" font-size="14.00">AtkParamPc 41102</text>
<text xml:space="preserve" text-anchor="middle" x="1259.81" y="-384.95" font-family="monospace" font-size="14.00">Rock Blaster</text>
</g>
<!-- bullet_10411013_9&#45;&gt;bullet_10411013_9_atk -->
<g id="edge19" class="edge">
<title>bullet_10411013_9&#45;&gt;bullet_10411013_9_atk</title>
<path fill="none" stroke="black" d="M1025.42,-397.55C1073.03,-397.7 1129.04,-397.86 1174.25,-398"/>
<polygon fill="black" stroke="black" points="1173.98,-401.5 1183.99,-398.03 1174,-394.5 1173.98,-401.5"/>
<text xml:space="preserve" text-anchor="middle" x="1105.56" y="-401.9" font-family="Times,serif" font-size="14.00">has Attack Param</text>
</g>
<!-- bullet_10411013_9_atk_damage -->
<g id="node21" class="node">
<title>bullet_10411013_9_atk_damage</title>
<polygon fill="none" stroke="black" points="1577.06,-470.5 1468.06,-470.5 1468.06,-326 1583.06,-326 1583.06,-464.5 1577.06,-470.5"/>
<polyline fill="none" stroke="black" points="1577.06,-470.5 1577.06,-464.5"/>
<polyline fill="none" stroke="black" points="1583.06,-464.5 1577.06,-464.5"/>
<text xml:space="preserve" text-anchor="middle" x="1525.56" y="-453.2" font-family="monospace" font-size="14.00">Physical: 83</text>
<text xml:space="preserve" text-anchor="middle" x="1525.56" y="-433.7" font-family="monospace" font-size="14.00">Magic: 0</text>
<text xml:space="preserve" text-anchor="middle" x="1525.56" y="-414.2" font-family="monospace" font-size="14.00">Fire: 0</text>
<text xml:space="preserve" text-anchor="middle" x="1525.56" y="-394.7" font-family="monospace" font-size="14.00">Lightning: 0</text>
<text xml:space="preserve" text-anchor="middle" x="1525.56" y="-375.2" font-family="monospace" font-size="14.00">Holy: 0</text>
<text xml:space="preserve" text-anchor="middle" x="1525.56" y="-355.7" font-family="monospace" font-size="14.00">Stamina: 5</text>
<text xml:space="preserve" text-anchor="middle" x="1525.56" y="-336.2" font-family="monospace" font-size="14.00">Poise: 0.1</text>
</g>
<!-- bullet_10411013_9_atk&#45;&gt;bullet_10411013_9_atk_damage -->
<g id="edge20" class="edge">
<title>bullet_10411013_9_atk&#45;&gt;bullet_10411013_9_atk_damage</title>
<path fill="none" stroke="black" d="M1334.28,-398.25C1372.54,-398.25 1419.02,-398.25 1456.47,-398.25"/>
<polygon fill="black" stroke="black" points="1456.27,-401.75 1466.27,-398.25 1456.27,-394.75 1456.27,-401.75"/>
<text xml:space="preserve" text-anchor="middle" x="1400.93" y="-402.2" font-family="Times,serif" font-size="14.00">deals damage</text>
</g>
<!-- bullet_10411015_11 -->
<g id="node23" class="node">
<title>bullet_10411015_11</title>
<polygon fill="none" stroke="black" points="1025.31,-291.25 819.56,-291.25 819.56,-205.25 1025.31,-205.25 1025.31,-291.25"/>
<text xml:space="preserve" text-anchor="middle" x="922.43" y="-273.95" font-family="monospace" font-size="14.00">Bullet 10411015 </text>
<text xml:space="preserve" text-anchor="middle" x="922.43" y="-254.45" font-family="monospace" font-size="14.00">Rock Blaster </text>
<text xml:space="preserve" text-anchor="middle" x="922.43" y="-234.95" font-family="monospace" font-size="14.00">atkId_Bullet: 41103 &#160;&#160;&#160;</text>
<text xml:space="preserve" text-anchor="middle" x="922.43" y="-215.45" font-family="monospace" font-size="14.00">Life time: 0.05 </text>
</g>
<!-- bullet_10411014_10&#45;&gt;bullet_10411015_11 -->
<g id="edge22" class="edge">
<title>bullet_10411014_10&#45;&gt;bullet_10411015_11</title>
<path fill="none" stroke="black" d="M659.39,-251.65C706.95,-251.04 761.06,-250.33 807.71,-249.73"/>
<polygon fill="black" stroke="black" points="807.63,-253.23 817.58,-249.6 807.54,-246.23 807.63,-253.23"/>
<text xml:space="preserve" text-anchor="middle" x="739.31" y="-255.29" font-family="Times,serif" font-size="14.00">on hit creates</text>
</g>
<!-- bullet_10411015_11_atk -->
<g id="node24" class="node">
<title>bullet_10411015_11_atk</title>
<polygon fill="none" stroke="black" points="1333.81,-260.75 1185.81,-260.75 1185.81,-256.75 1181.81,-256.75 1181.81,-252.75 1185.81,-252.75 1185.81,-221.75 1181.81,-221.75 1181.81,-217.75 1185.81,-217.75 1185.81,-213.75 1333.81,-213.75 1333.81,-260.75"/>
<polyline fill="none" stroke="black" points="1185.81,-256.75 1189.81,-256.75 1189.81,-252.75 1185.81,-252.75"/>
<polyline fill="none" stroke="black" points="1185.81,-221.75 1189.81,-221.75 1189.81,-217.75 1185.81,-217.75"/>
<text xml:space="preserve" text-anchor="middle" x="1259.81" y="-243.45" font-family="monospace" font-size="14.00">AtkParamPc 41103</text>
<text xml:space="preserve" text-anchor="middle" x="1259.81" y="-223.95" font-family="monospace" font-size="14.00">Rock Blaster</text>
</g>
<!-- bullet_10411015_11&#45;&gt;bullet_10411015_11_atk -->
<g id="edge23" class="edge">
<title>bullet_10411015_11&#45;&gt;bullet_10411015_11_atk</title>
<path fill="none" stroke="black" d="M1025.42,-244.9C1073.03,-243.34 1129.04,-241.51 1174.25,-240.02"/>
<polygon fill="black" stroke="black" points="1174.11,-243.53 1183.99,-239.7 1173.88,-236.53 1174.11,-243.53"/>
<text xml:space="preserve" text-anchor="middle" x="1105.56" y="-248.01" font-family="Times,serif" font-size="14.00">has Attack Param</text>
</g>
<!-- bullet_10411015_11_atk_damage -->
<g id="node25" class="node">
<title>bullet_10411015_11_atk_damage</title>
<polygon fill="none" stroke="black" points="1577.06,-307.5 1468.06,-307.5 1468.06,-163 1583.06,-163 1583.06,-301.5 1577.06,-307.5"/>
<polyline fill="none" stroke="black" points="1577.06,-307.5 1577.06,-301.5"/>
<polyline fill="none" stroke="black" points="1583.06,-301.5 1577.06,-301.5"/>
<text xml:space="preserve" text-anchor="middle" x="1525.56" y="-290.2" font-family="monospace" font-size="14.00">Physical: 83</text>
<text xml:space="preserve" text-anchor="middle" x="1525.56" y="-270.7" font-family="monospace" font-size="14.00">Magic: 0</text>
<text xml:space="preserve" text-anchor="middle" x="1525.56" y="-251.2" font-family="monospace" font-size="14.00">Fire: 0</text>
<text xml:space="preserve" text-anchor="middle" x="1525.56" y="-231.7" font-family="monospace" font-size="14.00">Lightning: 0</text>
<text xml:space="preserve" text-anchor="middle" x="1525.56" y="-212.2" font-family="monospace" font-size="14.00">Holy: 0</text>
<text xml:space="preserve" text-anchor="middle" x="1525.56" y="-192.7" font-family="monospace" font-size="14.00">Stamina: 5</text>
<text xml:space="preserve" text-anchor="middle" x="1525.56" y="-173.2" font-family="monospace" font-size="14.00">Poise: 0.1</text>
</g>
<!-- bullet_10411015_11_atk&#45;&gt;bullet_10411015_11_atk_damage -->
<g id="edge24" class="edge">
<title>bullet_10411015_11_atk&#45;&gt;bullet_10411015_11_atk_damage</title>
<path fill="none" stroke="black" d="M1334.28,-236.69C1372.54,-236.4 1419.02,-236.05 1456.47,-235.77"/>
<polygon fill="black" stroke="black" points="1456.29,-239.27 1466.27,-235.69 1456.24,-232.27 1456.29,-239.27"/>
<text xml:space="preserve" text-anchor="middle" x="1400.93" y="-240.5" font-family="Times,serif" font-size="14.00">deals damage</text>
</g>
<!-- bullet_10411015_13 -->
<g id="node27" class="node">
<title>bullet_10411015_13</title>
<polygon fill="none" stroke="black" points="1025.31,-149.25 819.56,-149.25 819.56,-63.25 1025.31,-63.25 1025.31,-149.25"/>
<text xml:space="preserve" text-anchor="middle" x="922.43" y="-131.95" font-family="monospace" font-size="14.00">Bullet 10411015 </text>
<text xml:space="preserve" text-anchor="middle" x="922.43" y="-112.45" font-family="monospace" font-size="14.00">Rock Blaster </text>
<text xml:space="preserve" text-anchor="middle" x="922.43" y="-92.95" font-family="monospace" font-size="14.00">atkId_Bullet: 41103 &#160;&#160;&#160;</text>
<text xml:space="preserve" text-anchor="middle" x="922.43" y="-73.45" font-family="monospace" font-size="14.00">Life time: 0.05 </text>
</g>
<!-- bullet_10411014_12&#45;&gt;bullet_10411015_13 -->
<g id="edge26" class="edge">
<title>bullet_10411014_12&#45;&gt;bullet_10411015_13</title>
<path fill="none" stroke="black" d="M647.1,-108.39C697.49,-108 757.07,-107.53 807.82,-107.14"/>
<polygon fill="black" stroke="black" points="807.69,-110.64 817.66,-107.06 807.63,-103.64 807.69,-110.64"/>
<text xml:space="preserve" text-anchor="middle" x="739.31" y="-112.06" font-family="Times,serif" font-size="14.00">on hit creates</text>
</g>
<!-- bullet_10411015_13_atk -->
<g id="node28" class="node">
<title>bullet_10411015_13_atk</title>
<polygon fill="none" stroke="black" points="1333.81,-114.75 1185.81,-114.75 1185.81,-110.75 1181.81,-110.75 1181.81,-106.75 1185.81,-106.75 1185.81,-75.75 1181.81,-75.75 1181.81,-71.75 1185.81,-71.75 1185.81,-67.75 1333.81,-67.75 1333.81,-114.75"/>
<polyline fill="none" stroke="black" points="1185.81,-110.75 1189.81,-110.75 1189.81,-106.75 1185.81,-106.75"/>
<polyline fill="none" stroke="black" points="1185.81,-75.75 1189.81,-75.75 1189.81,-71.75 1185.81,-71.75"/>
<text xml:space="preserve" text-anchor="middle" x="1259.81" y="-97.45" font-family="monospace" font-size="14.00">AtkParamPc 41103</text>
<text xml:space="preserve" text-anchor="middle" x="1259.81" y="-77.95" font-family="monospace" font-size="14.00">Rock Blaster</text>
</g>
<!-- bullet_10411015_13&#45;&gt;bullet_10411015_13_atk -->
<g id="edge27" class="edge">
<title>bullet_10411015_13&#45;&gt;bullet_10411015_13_atk</title>
<path fill="none" stroke="black" d="M1025.42,-101.69C1073.03,-99.56 1129.04,-97.05 1174.25,-95.03"/>
<polygon fill="black" stroke="black" points="1174.16,-98.54 1183.99,-94.6 1173.84,-91.55 1174.16,-98.54"/>
<text xml:space="preserve" text-anchor="middle" x="1105.56" y="-104.48" font-family="Times,serif" font-size="14.00">has Attack Param</text>
</g>
<!-- bullet_10411015_13_atk_damage -->
<g id="node29" class="node">
<title>bullet_10411015_13_atk_damage</title>
<polygon fill="none" stroke="black" points="1577.06,-144.5 1468.06,-144.5 1468.06,0 1583.06,0 1583.06,-138.5 1577.06,-144.5"/>
<polyline fill="none" stroke="black" points="1577.06,-144.5 1577.06,-138.5"/>
<polyline fill="none" stroke="black" points="1583.06,-138.5 1577.06,-138.5"/>
<text xml:space="preserve" text-anchor="middle" x="1525.56" y="-127.2" font-family="monospace" font-size="14.00">Physical: 83</text>
<text xml:space="preserve" text-anchor="middle" x="1525.56" y="-107.7" font-family="monospace" font-size="14.00">Magic: 0</text>
<text xml:space="preserve" text-anchor="middle" x="1525.56" y="-88.2" font-family="monospace" font-size="14.00">Fire: 0</text>
<text xml:space="preserve" text-anchor="middle" x="1525.56" y="-68.7" font-family="monospace" font-size="14.00">Lightning: 0</text>
<text xml:space="preserve" text-anchor="middle" x="1525.56" y="-49.2" font-family="monospace" font-size="14.00">Holy: 0</text>
<text xml:space="preserve" text-anchor="middle" x="1525.56" y="-29.7" font-family="monospace" font-size="14.00">Stamina: 5</text>
<text xml:space="preserve" text-anchor="middle" x="1525.56" y="-10.2" font-family="monospace" font-size="14.00">Poise: 0.1</text>
</g>
<!-- bullet_10411015_13_atk&#45;&gt;bullet_10411015_13_atk_damage -->
<g id="edge28" class="edge">
<title>bullet_10411015_13_atk&#45;&gt;bullet_10411015_13_atk_damage</title>
<path fill="none" stroke="black" d="M1334.28,-85.96C1372.54,-83.2 1419.02,-79.85 1456.47,-77.15"/>
<polygon fill="black" stroke="black" points="1456.55,-80.66 1466.27,-76.45 1456.05,-73.68 1456.55,-80.66"/>
<text xml:space="preserve" text-anchor="middle" x="1400.93" y="-88.51" font-family="Times,serif" font-size="14.00">deals damage</text>
</g>
</g>
</svg>
